<svg width="17" height="20" fill="none" xmlns="http://www.w3.org/2000/svg"><path d="M16.544 19.165L15.327 5.61a.718.718 0 00-.715-.653h-2.51V3.826A3.83 3.83 0 008.276 0a3.83 3.83 0 00-3.825 3.826v1.132H1.94a.718.718 0 00-.715.653L.003 19.218A.718.718 0 00.718 20h15.118a.718.718 0 00.708-.835zM5.887 3.825a2.393 2.393 0 012.39-2.39 2.393 2.393 0 012.39 2.39v1.133h-4.78V3.826zm-4.384 14.74L2.596 6.392h1.855v1.284a.718.718 0 101.436 0V6.393h4.78v1.284a.718.718 0 101.435 0V6.393h1.854l1.093 12.171H1.503z" fill="#fff"/></svg>